{"title":"Bad.Ass.2012.720p BRRip x264 Feel-Free","uid":7310243,"size":2259711865,"categoryP":"video","categoryS":"hd___movies","magnet":"?xt=urn:btih:23effd3a8678b6b11a470277a28a48fd68aa1290&amp;dn=Bad.Ass.2012.720p+BRRip+x264+Feel-Free&amp;tr=udp%3A%2F%2Ftracker.openbittorrent.com%3A80&amp;tr=udp%3A%2F%2Fopen.demonii.com%3A1337&amp;tr=udp%3A%2F%2Ftracker.coppersurfer.tk%3A6969&amp;tr=udp%3A%2F%2Fexodus.desync.com%3A6969","seeders":1,"leechers":1,"uploader":"hiest","files":-1,"time":1338321890,"description":"8888888888                888      8888888888                       \n888                       888      888                              \n888                       888      888                              \n8888888  .d88b.   .d88b.  888      8888888 888d888 .d88b.   .d88b.  \n888     d8P  Y8b d8P  Y8b 888      888     888P&quot;  d8P  Y8b d8P  Y8b \n888     88888888 88888888 888      888     888    88888888 88888888 \n888     Y8b.     Y8b.     888      888     888    Y8b.     Y8b.     \n888      &quot;Y8888   &quot;Y8888  888      888     888     &quot;Y8888   &quot;Y8888  \n\n\nGenre:Action | Fantasy | Sci-Fi \nLanguage:English\nIMDb:http://www.imdb.com/title/tt1928330/\nSource:720p.BluRay-HDChina Thanks!\nEncoder:Tony\n\nFormat : MPEG-4\nFormat profile : Base Media\nCodec ID : isom\nFile size : 2.10 GiB\nDuration : 1h 30mn\nOverall bit rate mode : Variable\nOverall bit rate : 3 331 Kbps\n\nVideo\nID : 1\nFormat : AVC\nFormat/Info : Advanced Video Codec\nFormat profile : &lt;a class=&quot;__cf_email__&quot; href=&quot;/cdn-cgi/l/email-protection&quot; data-cfemail=&quot;0b43626c634b473f253a&quot;&gt;[email&amp;#160;protected]&lt;/a&gt;&lt;script cf-hash='f9e31' type=&quot;text/javascript&quot;&gt;\n/* &lt;![CDATA[ */!function(){try{var t=&quot;currentScript&quot;in document?document.currentScript:function(){for(var t=document.getElementsByTagName(&quot;script&quot;),e=t.length;e--;)if(t[e].getAttribute(&quot;cf-hash&quot;))return t[e]}();if(t&amp;&amp;t.previousSibling){var e,r,n,i,c=t.previousSibling,a=c.getAttribute(&quot;data-cfemail&quot;);if(a){for(e=&quot;&quot;,r=parseInt(a.substr(0,2),16),n=2;a.length-n;n+=2)i=parseInt(a.substr(n,2),16)^r,e+=String.fromCharCode(i);e=document.createTextNode(e),c.parentNode.replaceChild(e,c)}}}catch(u){}}();/* ]]&gt; */&lt;/script&gt;\nFormat settings, CABAC : Yes\nFormat settings, ReFrames : 8 frames\nCodec ID : avc1\nCodec ID/Info : Advanced Video Coding\nDuration : 1h 30mn\nBit rate : 3 000 Kbps\nMaximum bit rate : 15.7 Mbps\nWidth : 1 280 pixels\nHeight : 688 pixels\nDisplay aspect ratio : 1.85:1\nFrame rate mode : Constant\nFrame rate : 23.976 fps\nColor space : YUV\nChroma subsampling : 4:2:0\nBit depth : 8 bits\nScan type : Progressive\nBits/(Pixel*Frame) : 0.142\nStream size : 1.82 GiB (87%)\nWriting library : x264\n\nAudio\nID : 2\nFormat : AAC\nFormat/Info : Advanced Audio Codec\nFormat profile : LC\nCodec ID : 40\nDuration : 1h 30mn\nBit rate mode : Variable\nBit rate : 438 Kbps\nMaximum bit rate : 578 Kbps\nChannel(s) : 6 channels\nChannel positions : Front: L C R, Side: L R, LFE\nSampling rate : 48.0 KHz\nCompression mode : Lossy\nStream size : 283 MiB (13%)\n\n\nPlot:\nA Vietnam veteran who becomes a local hero after saving a man from attackers on a city bus decides to take action when his best friend is murdered and the police show little interest in solving the crime.\n\n\nScreen Shots:\n           &lt;a href=&quot;\nhttp://img822.imageshack.us/img822/9867/vlcsnap2012052918h58m59.png&quot; rel=&quot;nofollow&quot; target=&quot;_NEW&quot;&gt;\nhttp://img822.imageshack.us/img822/9867/vlcsnap2012052918h58m59.png&lt;/a&gt;\n &lt;a href=&quot;\nhttp://img98.imageshack.us/img98/5620/vlcsnap2012052918h59m12.png&quot; rel=&quot;nofollow&quot; target=&quot;_NEW&quot;&gt;\nhttp://img98.imageshack.us/img98/5620/vlcsnap2012052918h59m12.png&lt;/a&gt;\n &lt;a href=&quot;\nhttp://img804.imageshack.us/img804/8849/vlcsnap2012052918h59m43.png&quot; rel=&quot;nofollow&quot; target=&quot;_NEW&quot;&gt;\nhttp://img804.imageshack.us/img804/8849/vlcsnap2012052918h59m43.png&lt;/a&gt;\n &lt;a href=&quot;\nhttp://img716.imageshack.us/img716/5269/vlcsnap2012052919h00m05.png&quot; rel=&quot;nofollow&quot; target=&quot;_NEW&quot;&gt;\nhttp://img716.imageshack.us/img716/5269/vlcsnap2012052919h00m05.png&lt;/a&gt;\n &lt;a href=&quot;\nhttp://img824.imageshack.us/img824/492/vlcsnap2012052918h59m52.png&quot; rel=&quot;nofollow&quot; target=&quot;_NEW&quot;&gt;\nhttp://img824.imageshack.us/img824/492/vlcsnap2012052918h59m52.png&lt;/a&gt;\n\n\n8888888888                888      8888888888                       \n888                       888      888                              \n888                       888      888                              \n8888888  .d88b.   .d88b.  888      8888888 888d888 .d88b.   .d88b.  \n888     d8P  Y8b d8P  Y8b 888      888     888P&quot;  d8P  Y8b d8P  Y8b \n888     88888888 88888888 888      888     888    88888888 88888888 \n888     Y8b.     Y8b.     888      888     888    Y8b.     Y8b.     \n888      &quot;Y8888   &quot;Y8888  888      888     888     &quot;Y8888   &quot;Y8888  ","torrent":{"xt":"urn:btih:23effd3a8678b6b11a470277a28a48fd68aa1290","amp;dn":"Bad.Ass.2012.720p+BRRip+x264+Feel-Free","amp;tr":["udp%3A%2F%2Ftracker.openbittorrent.com%3A80","udp%3A%2F%2Fopen.demonii.com%3A1337","udp%3A%2F%2Ftracker.coppersurfer.tk%3A6969","udp%3A%2F%2Fexodus.desync.com%3A6969"],"infoHash":"23effd3a8678b6b11a470277a28a48fd68aa1290","infoHashBuffer":{"type":"Buffer","data":[35,239,253,58,134,120,182,177,26,71,2,119,162,138,72,253,104,170,18,144]},"announce":[],"urlList":[]}}